<?xml version="1.0" standalone="no"?>
<!DOCTYPE svg PUBLIC "-//W3C//DTD SVG 20010904//EN"
 "http://www.w3.org/TR/2001/REC-SVG-20010904/DTD/svg10.dtd">
<svg version="1.0" xmlns="http://www.w3.org/2000/svg"
 width="512.000000pt" height="512.000000pt" viewBox="0 0 512.000000 512.000000"
 preserveAspectRatio="xMidYMid meet">
<metadata>
Created by potrace 1.11, written by Peter Selinger 2001-2013
</metadata>
<g transform="translate(0.000000,512.000000) scale(0.100000,-0.100000)"
fill="#000000" stroke="none">
<path d="M3369 5116 c-2 -2 -31 -7 -64 -10 -33 -4 -67 -9 -75 -11 -8 -2 -26
-6 -40 -9 -107 -18 -279 -80 -403 -145 -286 -148 -527 -396 -661 -681 -60
-128 -73 -168 -176 -558 -127 -484 -187 -641 -315 -832 -93 -138 -156 -211
-353 -412 l-125 -127 176 -176 c97 -96 177 -179 177 -183 0 -4 -145 -152 -323
-330 l-322 -322 -49 46 c-157 146 -396 158 -585 31 -104 -70 -194 -201 -220
-317 -12 -53 -8 -191 8 -238 19 -61 73 -146 120 -189 45 -42 96 -70 195 -109
53 -20 171 -127 193 -174 6 -14 29 -63 51 -110 77 -165 199 -248 380 -256 241
-10 469 171 517 411 29 146 -10 293 -108 400 l-44 49 324 323 c178 178 325
323 328 323 2 0 84 -80 180 -177 l176 -176 82 80 c210 207 311 295 437 380
217 146 375 206 914 348 387 103 506 150 689 273 237 159 447 416 552 677 31
79 83 252 90 305 16 110 20 168 20 285 0 153 -7 217 -34 342 -141 630 -640
1118 -1274 1245 -91 18 -425 36 -438 24z"/>
</g>
</svg>
